REM DIRINDEX 1\2,1\3
REM DIRNAME folder01,folder02,folder03
TITLE ""
FILE "Disk3Track44.mp3" MP3
  TRACK 01 AUDIO
    TITLE "2:cjc052_1411"
    INDEX 01 00:00:00
  TRACK 02 AUDIO
    TITLE "2:cjc052_1412"
    INDEX 01 00:04:66
  TRACK 03 AUDIO
    TITLE "2:cjc052_1413"
    INDEX 01 00:20:08
  TRACK 04 AUDIO
    TITLE "2:cjc052_1414"
    INDEX 01 00:29:21
  TRACK 05 AUDIO
    TITLE "0:"
    INDEX 01 00:34:20
